<svg xmlns="http://www.w3.org/2000/svg" viewBox="0 0 1200 750" role="img" aria-labelledby="title desc">
  <title id="title">Threshold hazard evidence placeholder</title>
  <desc id="desc">A stylised placeholder image representing a front threshold hazard near a road edge.</desc>
  <rect width="1200" height="750" fill="#10191d"/>
  <rect x="0" y="0" width="470" height="750" fill="#2b3438"/>
  <rect x="90" y="115" width="260" height="510" rx="18" fill="#5a2c1b"/>
  <rect x="140" y="170" width="160" height="360" fill="#172226"/>
  <circle cx="318" cy="365" r="14" fill="#ffd166"/>
  <path d="M470 0 L1200 0 L1200 750 L470 750 Z" fill="#1c2428"/>
  <path d="M470 510 C650 455 845 450 1200 395 L1200 750 L470 750 Z" fill="#76624d"/>
  <path d="M470 595 C670 548 870 520 1200 492 L1200 750 L470 750 Z" fill="#080b0d"/>
  <g opacity=".72" fill="none" stroke="#332319" stroke-width="38" stroke-linecap="round">
    <path d="M560 530 C700 500 870 510 1060 460"/>
    <path d="M585 610 C760 575 910 575 1115 525"/>
  </g>
  <g fill="#eef7f8" font-family="Arial, sans-serif" text-anchor="middle">
    <text x="600" y="92" font-size="44" font-weight="700">THRESHOLD HAZARD SLOT</text>
    <text x="600" y="144" font-size="26" fill="#a7bec5">Replace with redacted access / pavement photo</text>
  </g>
</svg>
