<svg xmlns="http://www.w3.org/2000/svg" viewBox="0 0 1200 750" role="img" aria-labelledby="title desc">
  <title id="title">Verge overrun evidence placeholder</title>
  <desc id="desc">A stylised placeholder image representing churned grass verge and pavement overrun.</desc>
  <defs>
    <linearGradient id="sky" x1="0" y1="0" x2="0" y2="1"><stop offset="0" stop-color="#27424b"/><stop offset="1" stop-color="#10191d"/></linearGradient>
    <linearGradient id="grass" x1="0" y1="0" x2="1" y2="1"><stop offset="0" stop-color="#4f7f32"/><stop offset="1" stop-color="#223b20"/></linearGradient>
  </defs>
  <rect width="1200" height="750" fill="url(#sky)"/>
  <path d="M0 380 C220 340 420 390 620 350 C840 306 1020 330 1200 285 L1200 750 L0 750 Z" fill="url(#grass)"/>
  <path d="M0 545 C240 505 405 515 610 490 C790 468 960 420 1200 400 L1200 750 L0 750 Z" fill="#6b5a45"/>
  <path d="M80 650 C300 600 520 620 720 570 C895 526 1040 515 1200 500 L1200 750 L0 750 L0 700 Z" fill="#1e2426"/>
  <g opacity=".62" fill="none" stroke="#2e2119" stroke-width="36" stroke-linecap="round">
    <path d="M255 534 C420 522 585 540 750 492"/>
    <path d="M302 602 C500 575 650 598 835 540"/>
  </g>
  <g fill="#eef7f8" font-family="Arial, sans-serif" text-anchor="middle">
    <text x="600" y="110" font-size="44" font-weight="700">CASE 01 IMAGE SLOT</text>
    <text x="600" y="162" font-size="26" fill="#a7bec5">Replace with redacted verge overrun photo</text>
  </g>
</svg>
